<svg width="20" height="20" viewBox="0 0 20 20" fill="none" xmlns="http://www.w3.org/2000/svg">
<mask id="mask0_5941_54033" style="mask-type:alpha" maskUnits="userSpaceOnUse" x="13" y="4" width="6" height="6">
<path fill-rule="evenodd" clip-rule="evenodd" d="M13.1484 4.62109H18.938V9.49652H13.1484V4.62109Z" fill="white"/>
</mask>
<g mask="url(#mask0_5941_54033)">
<path fill-rule="evenodd" clip-rule="evenodd" d="M18.1149 4.62109H13.9715C13.5169 4.62109 13.1484 4.98956 13.1484 5.44418V9.49652H18.1149C18.5695 9.49652 18.938 9.12798 18.938 8.67344V5.44418C18.938 4.98956 18.5695 4.62109 18.1149 4.62109Z" fill="#999999"/>
</g>
<path fill-rule="evenodd" clip-rule="evenodd" d="M2.75003 14.4805C1.69181 14.4805 0.833984 15.3384 0.833984 16.3966C0.833984 17.4549 1.69181 18.3127 2.75003 18.3127C3.80824 18.3127 4.66614 17.4549 4.66614 16.3966C4.66614 15.3384 3.80824 14.4805 2.75003 14.4805Z" fill="#999999"/>
<path fill-rule="evenodd" clip-rule="evenodd" d="M9.3011 4.47908C10.0779 4.47908 10.7077 3.84935 10.7077 3.07251C10.7077 2.29575 10.0779 1.66602 9.3011 1.66602C8.52427 1.66602 7.89453 2.29575 7.89453 3.07251C7.89453 3.84935 8.52427 4.47908 9.3011 4.47908Z" fill="#999999"/>
<path fill-rule="evenodd" clip-rule="evenodd" d="M15.0802 14.4805C14.0219 14.4805 13.1641 15.3384 13.1641 16.3966C13.1641 17.4549 14.0219 18.3127 15.0802 18.3127C16.1383 18.3127 16.9962 17.4549 16.9962 16.3966C16.9962 15.3384 16.1383 14.4805 15.0802 14.4805Z" fill="#999999"/>
<mask id="mask1_5941_54033" style="mask-type:alpha" maskUnits="userSpaceOnUse" x="0" y="4" width="19" height="13">
<path fill-rule="evenodd" clip-rule="evenodd" d="M0.833984 4.9043H18.9387V16.7038H0.833984V4.9043Z" fill="white"/>
</mask>
<g mask="url(#mask1_5941_54033)">
<path fill-rule="evenodd" clip-rule="evenodd" d="M13.1492 10.7425C12.5846 10.7748 11.9713 10.8529 11.3201 11.0003C9.72029 11.3625 10.9636 13.3032 10.9636 13.3032V14.7999L9.42592 14.7933C9.33305 13.7172 9.16857 11.8337 9.13477 11.5779C9.04392 10.89 9.71028 10.7818 9.71028 10.7818C9.71028 10.7818 9.9091 10.7079 10.9565 10.4345C12.0036 10.1613 11.6834 9.22662 11.6834 9.22662L11.1469 5.79962C11.1469 5.79962 11.0114 4.66394 9.84877 4.95072C8.7929 5.2112 9.22021 6.38812 9.22021 6.38812C9.22021 6.38812 9.22295 6.40111 9.22741 6.42286C8.22131 7.32466 6.85081 7.42364 6.85081 7.42364C6.2825 7.47028 5.60855 7.12881 5.60855 7.12881C5.60855 7.12881 4.65887 7.56566 4.37467 7.85573C4.09056 8.14587 4.18891 8.49211 4.37467 8.60862C4.56818 8.7299 5.28797 8.73296 5.28797 8.73296C5.71419 8.76496 5.59243 9.01269 5.59243 9.01269L6.44486 9.41965L7.23516 8.49266C8.44431 8.30205 9.28602 7.77497 9.47467 7.64821C9.56239 8.09289 9.6422 8.51386 9.65582 8.63812C9.68774 8.93241 9.49032 8.98429 9.49032 8.98429C9.49032 8.98429 8.42045 9.38765 7.92757 9.55549C7.33046 9.75886 7.59869 10.8455 7.59869 10.8455L7.94541 14.7869L7.13492 14.7835V14.7833H7.10574L6.91466 14.7826V14.7833H6.14713L4.51145 12.0719C4.51145 12.0719 5.73453 10.2429 6.44486 9.41965L5.59243 9.01269C5.59243 9.01269 2.6699 9.7015 1.61458 12.1942L2.33164 13.0405C1.93868 13.1816 1.32233 13.5282 0.833984 14.3723L1.00808 14.3969C1.37749 14.0456 1.85722 13.8036 2.40143 13.7324C3.76747 13.5536 5.01974 14.5161 5.19862 15.8822C5.22686 16.098 5.22639 16.3109 5.20065 16.5172C5.61552 16.6086 6.18054 16.688 6.91466 16.7015V16.7038H12.2174C12.3773 15.0516 14.1282 13.7858 15.5129 12.9977C16.1145 13.0038 16.6916 13.8952 17.6345 14.8437C18.6063 15.8213 18.8784 15.7739 18.8784 15.7739L17.011 12.2171C17.0891 12.1763 17.1471 12.1438 17.1807 12.1198C17.605 11.8166 16.7566 10.8579 16.7566 10.8579H18.9388V10.4217H13.1492V10.7425Z" fill="#999999"/>
</g>
</svg>
