<svg width="12" height="12" viewBox="0 0 12 12" fill="none" xmlns="http://www.w3.org/2000/svg">
<path fill-rule="evenodd" clip-rule="evenodd" d="M6.00005 10.4524C8.0251 10.4524 9.66672 8.81074 9.66672 6.7857C9.66672 4.76065 8.0251 3.11903 6.00005 3.11903C3.97501 3.11903 2.33339 4.76065 2.33339 6.7857C2.33339 8.81074 3.97501 10.4524 6.00005 10.4524ZM6.00005 11.5C8.60368 11.5 10.7143 9.38933 10.7143 6.7857C10.7143 4.18207 8.60368 2.07141 6.00005 2.07141C3.39642 2.07141 1.28577 4.18207 1.28577 6.7857C1.28577 9.38933 3.39642 11.5 6.00005 11.5Z" fill="#333333"/>
<rect x="5.4762" y="1.54761" width="1.04762" height="1.57143" fill="#333333"/>
<rect width="1.04762" height="1.57143" transform="matrix(-0.707107 -0.707107 -0.707107 0.707107 10.3519 3.24072)" fill="#333333"/>
<rect x="1.5" y="3.24072" width="1.04762" height="1.57143" transform="rotate(-45 1.5 3.24072)" fill="#333333"/>
<rect x="3.90479" y="0.5" width="4.19048" height="1.04762" rx="0.523809" fill="#333333"/>
<path d="M9.5 6.75C9.5 8.683 7.933 10.25 6 10.25C4.067 10.25 2.5 8.683 2.5 6.75C2.5 4.817 4.067 3.25 6 3.25C7.933 3.25 9.5 4.817 9.5 6.75Z" fill="#D00B0B"/>
<path d="M3.82072 6.9448L7.86456 2.77269L6.42794 5.80465L8.4183 5.80465L4.21782 10.8241L5.9135 6.94482L3.82072 6.9448Z" fill="#FFFF00" stroke="#FFD300" stroke-width="0.3" stroke-linejoin="round"/>
</svg>
