<svg width="20" height="20" viewBox="0 0 20 20" fill="none" xmlns="http://www.w3.org/2000/svg">
<path d="M17.5016 10.3907C17.3845 10.1329 17.3845 9.83623 17.5016 9.57838L18.122 8.21361C18.3528 7.70554 18.3632 7.11846 18.1497 6.60346C17.9355 6.08777 17.5141 5.67952 16.9915 5.48405L15.5886 4.95727C15.3224 4.85746 15.1131 4.64883 15.014 4.38267L14.4872 2.97977C14.2917 2.45715 13.8835 2.03572 13.3678 1.82154C12.8542 1.60806 12.2657 1.61846 11.7576 1.84927L10.3929 2.46962C10.1343 2.58745 9.83766 2.58745 9.58051 2.46962L8.21504 1.84927C7.70767 1.61776 7.1192 1.60737 6.6049 1.82154C6.08921 2.03503 5.68095 2.45715 5.48549 2.97977L4.95871 4.38267C4.85959 4.64883 4.65026 4.85815 4.3841 4.95727L2.9812 5.48405C2.45858 5.67952 2.03646 6.08777 1.82298 6.60346C1.60949 7.11846 1.61989 7.70554 1.8507 8.21361L2.47106 9.57838C2.5882 9.83623 2.5882 10.1329 2.47106 10.3907L1.8507 11.7555C1.61989 12.2636 1.60949 12.8507 1.82298 13.3657C2.03716 13.8813 2.45858 14.2896 2.9812 14.4851L4.3841 15.0118C4.65026 15.1117 4.85959 15.3203 4.95871 15.5865L5.48549 16.9894C5.68095 17.512 6.08921 17.9334 6.6049 18.1476C6.85096 18.2495 7.11435 18.3009 7.37774 18.3009C7.664 18.3009 7.95026 18.2405 8.21504 18.1199L9.57982 17.4995C9.83836 17.3817 10.135 17.3817 10.3922 17.4995L11.7569 18.1199C12.2643 18.3514 12.8528 18.3611 13.3671 18.1476C13.8828 17.9334 14.291 17.512 14.4865 16.9894L15.0133 15.5865C15.1131 15.3203 15.3217 15.111 15.5879 15.0118L16.9908 14.4851C17.5134 14.2896 17.9348 13.8813 18.149 13.3657C18.3625 12.8507 18.3521 12.2636 18.1213 11.7555L17.5016 10.3907Z" fill="#999999"/>
<path d="M7.18199 12.5813V10.6199H7.91168L8.89868 12.5813H10.3427V12.524L9.1752 10.2841C9.5106 10.1264 9.75703 9.92035 9.91449 9.66596C10.0719 9.41157 10.1507 9.09104 10.1507 8.70437C10.1507 8.17015 9.96377 7.75676 9.58997 7.46421C9.21616 7.17167 8.6977 7.02539 8.03458 7.02539H5.83398V12.5813H7.18199ZM8.03458 9.58583H7.18199V8.05949H8.03458C8.28805 8.05949 8.48007 8.12754 8.61065 8.26364C8.74122 8.39974 8.80651 8.58735 8.80651 8.82648C8.80651 9.0656 8.74186 9.25194 8.61257 9.3855C8.48327 9.51905 8.29061 9.58583 8.03458 9.58583ZM12.2092 14.1687V12.2417C12.455 12.519 12.7686 12.6576 13.1501 12.6576C13.6442 12.6576 14.0366 12.4662 14.3272 12.0833C14.6178 11.7005 14.7631 11.1885 14.7631 10.5474V10.4864C14.7631 9.83004 14.621 9.31427 14.3368 8.93904C14.0526 8.56382 13.6545 8.3762 13.1424 8.3762C12.7379 8.3762 12.4114 8.52884 12.1631 8.83411L12.1247 8.45252H10.9149V14.1687H12.2092ZM12.8313 11.6655C12.5292 11.6655 12.3218 11.551 12.2092 11.322V9.69649C12.3116 9.47771 12.5164 9.36833 12.8236 9.36833C13.2538 9.36833 13.4688 9.73465 13.4688 10.4673V10.6047C13.456 11.3119 13.2435 11.6655 12.8313 11.6655Z" fill="white"/>
</svg>
